Coordinates
version=1
nRows=5
nColumns=40
inDegrees=yes

Units are S.I. units (second, meters, Newtons, ...)
Angles are in degrees.

endheader
time	pelvis_tilt	pelvis_list	pelvis_rotation	pelvis_tx	pelvis_ty	pelvis_tz	hip_flexion_r	hip_adduction_r	hip_rotation_r	knee_angle_r	knee_angle_r_beta	ankle_angle_r	subtalar_angle_r	mtp_angle_r	hip_flexion_l	hip_adduction_l	hip_rotation_l	knee_angle_l	knee_angle_l_beta	ankle_angle_l	subtalar_angle_l	mtp_angle_l	lumbar_extension	lumbar_bending	lumbar_rotation	arm_flex_r	arm_add_r	arm_rot_r	elbow_flex_r	pro_sup_r	wrist_flex_r	wrist_dev_r	arm_flex_l	arm_add_l	arm_rot_l	elbow_flex_l	pro_sup_l	wrist_flex_l	wrist_dev_l
      0.00000000	     -6.71460886	     -0.64848278	      8.00873830	     -0.72009002	      0.94548578	     -0.98961421	     19.61945755	      1.94359516	    -16.43329618	    -23.65593588	     -0.41287397	      6.57431495	     -8.79200271	     -2.95987799	     19.86071098	      9.27665528	      9.40511346	    -58.63203388	     -1.02332204	      2.67006336	     17.87091611	     15.48452220	     -0.86396099	      1.70999756	     -1.89946521	     -0.34551694	    -10.38709547	    -15.83147429	     14.77349501	     89.95437384	      0.00000000	      0.00000000	      0.16883942	     15.52735262	     14.54823784	     27.96315273	     89.95437384	      0.00000000	      0.00000000
      0.01000000	     -6.83507280	     -0.26404989	      7.55939365	     -0.70836477	      0.94708233	     -0.98978854	     18.54158531	      1.71792375	    -16.53375943	    -23.02642014	     -0.40188685	      6.89515988	     -8.58344284	     -2.97354850	     21.42217967	      8.81858888	      9.83518715	    -58.06086266	     -1.01335322	      3.08666956	     17.85141977	     15.19262966	     -0.69222996	      1.12005189	     -1.39740682	      0.29887034	    -10.29085551	    -15.71291646	     15.30900577	     89.95437384	      0.00000000	      0.00000000	     -0.75648977	     14.95650745	     14.30260319	     27.31255229	     89.95437384	      0.00000000	      0.00000000
      0.02000000	     -6.57642913	      0.47777263	      6.76298800	     -0.69633768	      0.94932466	     -0.98969678	     16.86759149	      1.33571741	    -15.78264731	    -22.02233584	     -0.38436227	      7.36607247	     -7.59641633	     -3.25051812	     22.12616182	      8.10209885	     10.75272268	    -56.81549323	     -0.99161742	      3.56057417	     17.83838950	     14.97992228	     -1.01741654	      0.22288984	     -0.49137962	      0.93609113	    -10.20766948	    -15.64883656	     15.97148027	     89.95437384	      0.00000000	      0.00000000	     -1.42712503	     14.37613994	     14.19809424	     26.29964411	     89.95437384	      0.00000000	      0.00000000
      0.03000000	     -6.80825561	      0.74472089	      6.29664179	     -0.68472906	      0.95014748	     -0.98970831	     16.02350724	      1.16469984	    -16.09507300	    -21.46563904	     -0.37464608	      7.68712046	     -7.43633862	     -3.27812956	     23.69745505	      7.87553094	     11.35537744	    -55.71241436	     -0.97236506	      3.79476477	     17.63728547	     14.74839684	     -0.69775395	     -0.25202819	     -0.05210932	      1.63988414	    -10.11376172	    -15.57463825	     16.61583227	     89.95437384	      0.00000000	      0.00000000	     -2.50742996	     13.87144311	     14.00359824	     25.71452279	     89.95437384	      0.00000000	      0.00000000
      0.04000000	     -6.41424953	      1.78460282	      5.29371341	     -0.67224345	      0.95211355	     -0.98954553	     14.22292448	      0.37923419	    -15.27742166	    -20.51921540	     -0.35812787	      8.37489096	     -5.76108882	     -3.94253863	     23.87340827	      6.95496969	     12.64955672	    -53.70335222	     -0.93730032	      4.00024047	     17.37401417	     14.46354106	     -1.13492607	     -1.46170353	      1.07194037	      2.19005527	    -10.01235832	    -15.56164114	     17.52860206	     89.95437384	      0.00000000	      0.00000000	     -3.25198293	     13.37067080	     13.77205482	     24.67795941	     89.95437384	      0.00000000	      0.00000000
